<svg xmlns="http://www.w3.org/2000/svg" width="320" height="560" viewBox="0 0 320 560">
<rect width="320" height="560" fill="#F0F4FF"/>
<text x="160" y="48" font-family="Arial,sans-serif" font-size="16" font-weight="bold" fill="#1A2A5E" text-anchor="middle">TA application workflow at BITS Pilani Goa</text>
<line x1="50" y1="58" x2="270" y2="58" stroke="#D4A017" stroke-width="2"/>
<rect x="50" y="110" width="220" height="54" rx="10" ry="10" fill="#1A2A5E" stroke="#D4A017" stroke-width="1.5"/>
<circle cx="72" cy="137" r="13" fill="#D4A017"/>
<text x="72" y="142" font-family="Arial,sans-serif" font-size="12" font-weight="bold" fill="#1A2A5E" text-anchor="middle">1</text>
<text x="94" y="142" font-family="Arial,sans-serif" font-size="13" fill="#FFFFFF">Submit TA Application</text>
<line x1="160" y1="164" x2="160" y2="184" stroke="#D4A017" stroke-width="2"/>
<polygon points="160,194 153,182 167,182" fill="#D4A017"/>
<rect x="50" y="194" width="220" height="54" rx="10" ry="10" fill="#2A3D7A" stroke="#D4A017" stroke-width="1.5"/>
<circle cx="72" cy="221" r="13" fill="#D4A017"/>
<text x="72" y="226" font-family="Arial,sans-serif" font-size="12" font-weight="bold" fill="#1A2A5E" text-anchor="middle">2</text>
<text x="94" y="226" font-family="Arial,sans-serif" font-size="13" fill="#FFFFFF">HOD Review</text>
<line x1="160" y1="248" x2="160" y2="268" stroke="#D4A017" stroke-width="2"/>
<polygon points="160,278 153,266 167,266" fill="#D4A017"/>
<rect x="50" y="278" width="220" height="54" rx="10" ry="10" fill="#1A2A5E" stroke="#D4A017" stroke-width="1.5"/>
<circle cx="72" cy="305" r="13" fill="#D4A017"/>
<text x="72" y="310" font-family="Arial,sans-serif" font-size="12" font-weight="bold" fill="#1A2A5E" text-anchor="middle">3</text>
<text x="94" y="310" font-family="Arial,sans-serif" font-size="13" fill="#FFFFFF">Interview</text>
<line x1="160" y1="332" x2="160" y2="352" stroke="#D4A017" stroke-width="2"/>
<polygon points="160,362 153,350 167,350" fill="#D4A017"/>
<rect x="50" y="362" width="220" height="54" rx="10" ry="10" fill="#2A3D7A" stroke="#D4A017" stroke-width="1.5"/>
<circle cx="72" cy="389" r="13" fill="#D4A017"/>
<text x="72" y="394" font-family="Arial,sans-serif" font-size="12" font-weight="bold" fill="#1A2A5E" text-anchor="middle">4</text>
<text x="94" y="394" font-family="Arial,sans-serif" font-size="13" fill="#FFFFFF">Offer Letter</text>
<line x1="160" y1="416" x2="160" y2="436" stroke="#D4A017" stroke-width="2"/>
<polygon points="160,446 153,434 167,434" fill="#D4A017"/>
<rect x="50" y="446" width="220" height="54" rx="10" ry="10" fill="#1A2A5E" stroke="#D4A017" stroke-width="1.5"/>
<circle cx="72" cy="473" r="13" fill="#D4A017"/>
<text x="72" y="478" font-family="Arial,sans-serif" font-size="12" font-weight="bold" fill="#1A2A5E" text-anchor="middle">5</text>
<text x="94" y="478" font-family="Arial,sans-serif" font-size="13" fill="#FFFFFF">Duties Begin</text>
</svg>